<svg width="256" height="256" viewBox="0 0 256 256" fill="none" xmlns="http://www.w3.org/2000/svg">
    <g clip-path="url(#clip0_1_27)">
        <rect width="256" height="256" fill="#F7BFEF" />
        <path
            d="M149.25 133.103C147.89 133.572 147.15 133.943 146.35 134.078C144.1 134.466 141.83 134.728 139.58 135.117C138.8 135.252 138.08 135.74 137.3 135.803C136.5 135.866 135.67 135.613 134.52 135.451C134.01 135.08 133.23 134.512 132.34 133.87C132.66 132.66 133.31 131.459 132.75 130.285C133.52 128.939 134.22 127.702 134.99 126.356C136.27 126.167 137.54 126.013 138.78 125.796C139.75 125.625 140.69 125.489 141.58 124.947C142.67 124.279 143.95 124.153 145.01 124.631C145.95 124.351 146.86 123.773 147.48 123.963C148.78 124.36 150 124.225 151.26 124.089C152.8 123.927 154.32 123.448 155.86 124.162C156.19 124.315 156.7 124.144 157.13 124.098C158.55 123.945 160.02 123.493 161.37 123.701C162.66 123.9 163.88 123.855 165.15 123.855C165.83 123.855 166.51 124.062 167.25 124.189C168.06 123.864 168.94 123.52 169.88 123.141C170.67 123.548 171.41 123.918 172.15 124.297C172.94 123.367 174.27 123.042 175.21 123.367C176.54 123.828 177.72 123.52 178.97 123.529C179.52 123.529 180.07 123.692 180.8 123.8C180.96 123.701 181.3 123.502 181.79 123.204C183.01 123.548 184.39 123.629 185.8 123.358C187.06 123.114 188.34 122.997 189.63 122.888C191.03 122.771 192.43 122.355 193.82 123.024C194.2 123.204 194.92 122.834 196.08 122.157C197.75 123.06 199.44 122.066 201.34 122.265C202.29 123.539 203.84 122.157 205.22 122.672C206.48 123.15 207.94 123.195 209.32 123.43C209.83 124.044 210.34 124.64 210.95 125.363C210.83 125.742 210.69 126.23 210.52 126.763C210.7 126.97 210.93 127.25 211.17 127.539C211.06 127.63 210.95 127.792 210.85 127.783C210.03 127.711 209.22 127.576 208.4 127.512C208.13 127.485 207.8 127.521 207.56 127.639C206.45 128.163 205.36 128.713 204.2 129.291C202.97 129.011 201.65 128.704 200.24 128.388C199.46 129.066 198.76 129.68 198.03 130.303C197.35 130.393 196.64 130.493 195.89 130.592C194.86 130.285 193.79 129.969 192.59 129.608C192.34 129.743 192 129.96 191.63 130.095C190.99 130.33 190.34 130.61 189.67 130.709C186.99 131.107 184.3 131.45 181.6 131.811C181.05 131.64 180.52 131.468 180.04 131.314C176.35 131.603 172.75 132.561 168.71 132.299C168.71 132.299 168.37 132.534 167.94 132.841C167.45 132.705 166.92 132.561 166.09 132.326C165.26 132.434 164.14 132.597 163.01 132.741C161.73 132.904 160.44 132.976 159.19 133.229C158.16 133.437 157.06 132.534 156.11 133.437C154.87 132.75 153.6 133.346 152.35 133.383C151.24 133.401 150.08 133.906 149.25 133.103Z"
            fill="#282828" />
        <path
            d="M66.26 190.984C65.71 190.749 65.34 190.587 64.98 190.433C64.5 190.957 64.05 191.454 63.6 191.95C63.2 191.788 62.83 191.634 62.31 191.417C61.35 192.004 60.32 192.637 59.29 193.269C58.9 192.781 58.5 192.275 58.02 191.679C58.29 190.966 58.61 190.153 58.8 189.638C59.11 189.277 59.18 189.151 59.29 189.078C61.56 187.588 63.87 186.179 65.71 184.174C66.85 182.928 68.51 182.079 69.96 181.077C71.19 180.228 72.53 179.505 73.44 178.313C73.75 177.907 74.21 177.582 74.65 177.284C77 175.667 79.22 173.933 81.46 172.199C83.59 170.555 85.76 168.939 87.9 167.295C90.67 165.155 93.61 163.177 96.34 160.991C100.23 157.875 104.45 155.112 108.18 151.815C109.68 150.488 111.12 149.088 112.71 147.833C114.3 146.577 115.67 145.087 117.04 143.615C118.07 142.513 119.19 141.619 120.81 141.276C122.36 142.423 123.66 143.696 124.76 145.259C124.63 146.37 124.49 147.607 124.28 149.413C123.41 150.641 122.21 152.375 120.26 153.549C119.78 154.642 118 154.751 117.87 156.105C116.87 156.801 115.84 157.46 114.89 158.2C113.93 158.95 113.06 159.772 112.15 160.567C111.84 160.838 111.6 161.181 111.24 161.361C108.15 162.924 105.76 165.317 102.89 167.132C101.4 168.081 100 169.11 98.78 170.357C97.63 171.54 96.09 172.163 94.38 172.298C93.99 173.012 93.74 173.761 93.23 174.312C92.7 174.881 91.9 175.242 91.2 175.694C90.97 175.604 90.71 175.495 90.43 175.387C89.87 175.721 89.3 176.055 88.62 176.471C88.63 178.259 86.94 178.936 85.52 179.668C84.58 180.146 83.31 179.966 82.44 180.824C81.69 181.564 80.75 182.151 79.87 182.838C78.43 183.091 76.96 183.389 76.03 184.635C76.21 184.843 76.39 185.041 76.59 185.276C75.71 186.062 74.49 185.746 73.51 186.125C70.64 187.245 68.84 189.692 66.26 190.984Z"
            fill="#282828" />
        <path
            d="M59.67 96.3364C59.43 95.8216 59.27 95.4604 59.09 95.072C58.75 94.8824 58.4 94.5301 58.02 94.494C55.24 94.205 53.78 92.6697 53.05 90.3848C53.02 90.2764 52.87 90.1951 52.77 90.1048C51.32 89.4997 51.32 89.4997 49.58 89.6081C48.28 88.7411 47.83 87.3503 46.97 86.2395C46.12 85.1286 45.34 83.9365 44.27 82.9882C44.49 82.7082 44.61 82.4012 44.82 82.3379C46.03 81.9586 47.26 81.6335 48.35 81.3355C49.06 81.7238 49.62 82.076 50.23 82.3379C50.73 82.5547 51.51 82.5005 51.77 82.8256C52.49 83.7197 53.69 83.783 54.55 84.379C54.85 84.5867 54.94 85.0473 55.13 85.4086C58.36 86.122 60.98 87.8651 63.61 89.7978C63.77 90.15 63.99 90.6196 64.21 91.0802C66.57 91.2699 68.38 92.5433 70.28 93.609C71.11 94.0786 71.8 94.783 72.68 95.1533C76.29 96.7067 79.18 99.2083 82.51 101.132C83.95 102.776 86.29 103.363 87.83 104.862C89.32 106.307 91.31 107.057 93.11 108.068C93.35 108.203 93.63 108.303 93.84 108.474C96.82 110.832 100.05 112.882 103.31 114.905C104.45 115.609 105.32 116.684 106.4 117.659C106.41 118.553 106.42 119.556 106.44 120.883C105.93 122.635 104.52 124.18 102.45 125.553C101.65 125.507 100.68 125.444 99.49 125.372C99.29 125.029 99.15 124.46 98.76 124.18C96.98 122.942 95.61 121.281 93.71 120.17C93 119.754 92.2 119.384 91.66 118.815C90.34 117.442 88.82 116.35 87.18 115.799C86.77 115.103 86.51 114.652 86.43 114.498C84.93 113.433 83.7 112.575 82.5 111.699C80.1 109.947 77.25 108.7 75.3 106.442C73.18 105.648 71.85 103.796 69.68 103.074C66.94 100.888 63.54 99.4793 60.94 97.1041C60.54 96.7518 60 96.5351 59.67 96.3364Z"
            fill="#282828" />
        <path
            d="M129.66 194.009C129.29 194.795 128.97 195.491 128.66 196.141C127.55 196.61 126.68 196.339 125.66 195.283C125.47 194.506 125.21 193.395 124.92 192.194C124.06 191.797 123.22 191.399 122.32 190.984C122.48 190.397 122.64 189.801 122.8 189.214C122.59 188.338 121.59 188.166 120.93 187.408C120.71 186.08 120.46 184.554 120.19 182.874C120.33 182.467 120.54 181.889 120.74 181.321C119.78 180.977 119.02 180.715 118.17 180.408C117.84 179.135 117.51 177.898 117.12 176.398C116.58 175.667 115.88 174.728 115.08 173.653C114.91 172.416 114.27 171.16 113.71 169.851C111.66 165.019 109.91 160.079 107.06 155.554C106.72 152.746 104.1 150.994 102.97 148.528C102.53 147.553 101.19 146.911 100.34 146.18C99.94 145.168 99.57 144.22 99.12 143.082C100.25 140.427 103.16 139.343 105.96 138.151C106.63 138.341 107.3 138.539 108.15 138.783C109.28 140.201 110.52 141.746 111.74 143.299C112.97 144.861 113.85 146.659 114.26 148.447C114.62 150 115.87 151.165 116 152.719C117.82 154.714 117.93 157.451 119.59 159.528C119.82 159.817 119.88 160.269 119.89 160.648C119.94 163.267 122 165.407 122.06 168.027C123.68 169.21 122.85 171.251 124.03 172.578C125.13 173.816 124.4 175.703 125.92 176.769C126.24 178.421 126.54 180.083 126.88 181.727C127.11 182.847 127.02 184.048 128.03 184.969C128.28 185.204 128.28 185.692 128.34 186.062C128.79 188.627 129.2 191.183 129.66 194.009Z"
            fill="#282828" />
        <path
            d="M135.83 59.6424C136.83 59.9856 137.48 60.2114 138.13 60.4371C138.77 61.259 138.53 62.0989 138.19 62.9478C138.37 63.1465 138.56 63.3452 138.74 63.5439C138.44 64.3838 138.14 65.2327 137.83 66.0997C137.97 66.2533 138.35 66.4971 138.31 66.6416C137.72 68.7007 138.36 70.9224 137.3 72.8912C136.87 73.695 137.32 74.3995 137.32 75.14C137.32 75.8987 136.63 76.5399 136.9 77.3798C137.05 77.8494 137 78.4003 136.89 78.888C136.69 79.7279 136.36 80.5407 136.09 81.3716C137.11 82.1754 135.9 82.9701 136.02 83.8371C136.12 84.5867 135.34 85.4447 134.9 86.3569C135.64 87.549 134.65 88.7321 134.54 89.9874C134.38 91.8749 134.05 93.7625 133.22 95.5236C132.37 97.3027 132.72 99.2535 132.17 101.087C131.36 103.751 130.91 106.497 130.21 109.188C129.22 112.99 127.16 116.314 124.11 119.213C122.48 119.429 120.8 119.655 118.79 119.926C118.12 119.493 117.32 118.978 116.62 118.526C117.1 116.485 117.4 114.823 118.34 113.18C119.61 110.976 120.75 108.673 120.99 106.045C121.15 104.32 122.09 102.64 122.77 100.969C123.31 99.6509 123.75 98.3594 123.69 96.8963C123.65 96.0474 124.04 95.1623 124.34 94.3314C124.89 92.76 125.51 91.2066 126.17 89.4365C126.4 89.2649 126.83 88.9579 127.4 88.5424C127.21 88.145 127.01 87.7025 126.72 87.0884C126.72 87.0794 126.74 86.8445 126.81 86.6278C127.02 86.0317 127.36 85.4537 127.47 84.8486C127.66 83.801 128.42 83.0153 128.83 82.0851C129.17 81.3174 129.1 80.3962 129.31 78.8338C129.28 78.5538 127.47 78.1294 128.73 76.4225C128.67 76.4676 129.09 76.1515 129.52 75.8264C129.34 75.6277 129.16 75.42 128.96 75.1942C129.33 74.3001 129.54 73.3699 130.08 72.4578C131.19 70.5792 132.33 68.6014 131.63 66.2533C132.05 65.6391 132.5 64.9889 132.96 64.3025C132.85 63.3001 132.73 62.2886 132.62 61.3041C132.9 60.9248 133.14 60.5997 133.52 60.0849C134.13 59.9765 134.95 59.814 135.83 59.6424Z"
            fill="#282828" />
    </g>
    <defs>
        <clipPath id="clip0_1_27">
            <rect width="256" height="256" fill="white" />
        </clipPath>
    </defs>
</svg>