<svg width="685" height="685" viewBox="0 0 685 685" fill="none" xmlns="http://www.w3.org/2000/svg">
    <path fill-rule="evenodd" clip-rule="evenodd" d="M42.8125 685H685V385.312H42.8125V685Z" fill="#FFAFF3"
        fill-opacity="0.7" />
    <path fill-rule="evenodd" clip-rule="evenodd" d="M299.688 42.8125L128.438 214.062H299.688V42.8125Z" fill="#9AA7B0"
        fill-opacity="0.8" />
    <path fill-rule="evenodd" clip-rule="evenodd" d="M342.5 42.8125V256.875H128.438V342.5H556.562V42.8125H342.5Z"
        fill="#9AA7B0" fill-opacity="0.8" />
    <path
        d="M124.8 609C115.067 609 106.533 607.2 99.2 603.6C91.8667 599.867 86.1333 594.733 82 588.2C78 581.533 76 573.8 76 565V503C76 494.067 78 486.333 82 479.8C86.1333 473.267 91.8667 468.2 99.2 464.6C106.533 460.867 115.067 459 124.8 459C134.667 459 143.2 460.867 150.4 464.6C157.733 468.2 163.4 473.267 167.4 479.8C171.533 486.333 173.6 494.067 173.6 503H143.6C143.6 497.133 141.933 492.667 138.6 489.6C135.4 486.533 130.8 485 124.8 485C118.8 485 114.133 486.533 110.8 489.6C107.6 492.667 106 497.133 106 503V565C106 570.733 107.6 575.2 110.8 578.4C114.133 581.467 118.8 583 124.8 583C130.8 583 135.4 581.467 138.6 578.4C141.933 575.2 143.6 570.733 143.6 565V552.4H122V527H173.6V565C173.6 573.8 171.533 581.533 167.4 588.2C163.4 594.733 157.733 599.867 150.4 603.6C143.2 607.2 134.667 609 124.8 609ZM202.922 607V461H232.922V579H291.922V607H202.922ZM319.844 607V461H409.844V486.6H349.244V519.4H402.844V545H349.244V581.4H409.844V607H319.844ZM428.766 607L464.566 461H502.566L538.766 607H508.166L501.166 574H466.366L459.366 607H428.766ZM471.366 550H495.966L488.966 514.8C488.032 509.733 487.032 504.733 485.966 499.8C485.032 494.733 484.299 490.8 483.766 488C483.232 490.8 482.499 494.667 481.566 499.6C480.766 504.533 479.832 509.533 478.766 514.6L471.366 550ZM552.088 607V461H585.888L599.288 507C600.754 511.8 601.821 516 602.487 519.6C603.288 523.2 603.754 525.733 603.888 527.2C604.021 525.733 604.421 523.2 605.088 519.6C605.888 516 606.954 511.8 608.288 507L621.488 461H655.288V607H627.888V567C627.888 559.667 628.021 552 628.288 544C628.688 535.867 629.088 527.8 629.488 519.8C630.021 511.8 630.621 504.333 631.288 497.4C631.954 490.333 632.554 484.2 633.088 479L616.088 545H591.088L573.488 479C574.154 483.933 574.821 489.867 575.488 496.8C576.154 503.6 576.754 511 577.288 519C577.954 526.867 578.488 534.933 578.888 543.2C579.288 551.467 579.488 559.4 579.488 567V607H552.088Z"
        fill="#5D5B5B" />
</svg>