<svg width="16" height="16" viewBox="0 0 685 685" fill="none" xmlns="http://www.w3.org/2000/svg">
<g clip-path="url(#clip0_1_20)">
<path fill-rule="evenodd" clip-rule="evenodd" d="M42.8125 685H685V385.312H42.8125V685Z" fill="#FFAFF3" fill-opacity="0.7"/>
<path fill-rule="evenodd" clip-rule="evenodd" d="M299.688 42.8125L128.438 214.062H299.688V42.8125Z" fill="#9AA7B0" fill-opacity="0.8"/>
<path fill-rule="evenodd" clip-rule="evenodd" d="M342.5 42.8125V256.875H128.438V342.5H556.562V42.8125H342.5Z" fill="#9AA7B0" fill-opacity="0.8"/>
<path d="M149.4 664.5C132.367 664.5 117.433 661.35 104.6 655.05C91.7667 648.517 81.7333 639.533 74.5 628.1C67.5 616.433 64 602.9 64 587.5V479C64 463.367 67.5 449.833 74.5 438.4C81.7333 426.967 91.7667 418.1 104.6 411.8C117.433 405.267 132.367 402 149.4 402C166.667 402 181.6 405.267 194.2 411.8C207.033 418.1 216.95 426.967 223.95 438.4C231.183 449.833 234.8 463.367 234.8 479H182.3C182.3 468.733 179.383 460.917 173.55 455.55C167.95 450.183 159.9 447.5 149.4 447.5C138.9 447.5 130.733 450.183 124.9 455.55C119.3 460.917 116.5 468.733 116.5 479V587.5C116.5 597.533 119.3 605.35 124.9 610.95C130.733 616.317 138.9 619 149.4 619C159.9 619 167.95 616.317 173.55 610.95C179.383 605.35 182.3 597.533 182.3 587.5V565.45H144.5V521H234.8V587.5C234.8 602.9 231.183 616.433 223.95 628.1C216.95 639.533 207.033 648.517 194.2 655.05C181.6 661.35 166.667 664.5 149.4 664.5ZM286.113 661V405.5H338.613V612H441.863V661H286.113Z" fill="#5D5B5B"/>
</g>
<defs>
<clipPath id="clip0_1_20">
<rect width="685" height="685" fill="white"/>
</clipPath>
</defs>
</svg>
